<svg width="422" height="132" viewBox="0 0 422 132" fill="none" xmlns="http://www.w3.org/2000/svg">
<path d="M78.4976 77.3575L48.4259 115.782C46.9979 117.607 47.3716 120.265 49.3386 121.49C59.3382 127.715 71.1989 131.349 83.8255 131.349C84.5362 131.349 85.1572 131.371 85.8623 131.349C102.686 130.647 115.982 124.505 125.261 116.484C131.808 111.086 138.138 103.514 140.174 97.4037C142.412 90.6903 126.362 66.4201 115.697 56.6523C113.969 55.0693 111.342 55.6601 110.158 57.6831L93.8246 85.6085C92.7358 87.47 90.016 87.3808 89.0516 85.4519L85.3488 78.0463C84.0109 75.3705 80.3414 75.0016 78.4976 77.3575Z" fill="#058EA4"/>
<path fill-rule="evenodd" clip-rule="evenodd" d="M149 66.2022C149 30.1921 119.808 1.00012 83.7981 1L83.7963 1C49.5913 1.0009 21.5379 27.3551 18.8123 60.8587C18.6942 62.31 17.503 63.4617 16.0468 63.4614L2.39238 63.4587C0.860229 63.4587 0.0216902 65.4765 1.00008 66.809L31.5505 105.55C32.9974 107.521 36.0083 107.521 37.4552 105.55L67.4476 66.809C68.426 65.4765 67.8832 63.4743 66.3511 63.4743L52.9981 63.4708C51.3942 63.4704 50.1309 62.0842 50.4243 60.5073C50.5879 59.6277 50.7847 58.7598 51.0134 57.9049C54.521 42.2756 72.0445 27.8955 93.9859 30.2052C102.217 31.0716 130.624 34.7772 145.24 79.8159C145.555 80.7858 146.912 80.7784 147.142 79.785C147.938 76.3429 149 70.8742 149 66.2022Z" fill="#F46E23"/>
<path d="M180.126 108.842C179.277 108.842 178.544 108.533 177.926 107.916C177.309 107.298 177 106.565 177 105.716V30.9158C177 30.0667 177.309 29.3333 177.926 28.7158C178.544 28.0982 179.277 27.7895 180.126 27.7895H198.421C199.965 27.7895 201.084 28.1368 201.779 28.8316C202.474 29.5263 202.937 30.0667 203.168 30.4526L222.737 62.5263V30.9158C222.737 30.0667 223.046 29.3333 223.663 28.7158C224.281 28.0982 225.014 27.7895 225.863 27.7895H246.821C247.67 27.7895 248.404 28.0982 249.021 28.7158C249.639 29.3333 249.947 30.0667 249.947 30.9158V105.716C249.947 106.565 249.639 107.298 249.021 107.916C248.404 108.533 247.67 108.842 246.821 108.842H228.526C226.982 108.842 225.863 108.495 225.168 107.8C224.474 107.028 224.011 106.488 223.779 106.179L204.211 76.6526V105.716C204.211 106.565 203.902 107.298 203.284 107.916C202.667 108.533 201.933 108.842 201.084 108.842H180.126Z" fill="#058EA4"/>
<path d="M291.511 110C284.41 110 278.427 109.035 273.564 107.105C268.701 105.175 264.957 102.281 262.332 98.4211C259.785 94.5614 258.318 89.814 257.932 84.1789C257.855 82.4035 257.817 80.5895 257.817 78.7368C257.817 76.807 257.855 74.993 257.932 73.2947C258.318 67.5825 259.901 62.8351 262.68 59.0526C265.459 55.193 269.28 52.2982 274.143 50.3684C279.006 48.4386 284.796 47.4737 291.511 47.4737C298.227 47.4737 304.017 48.4386 308.88 50.3684C313.743 52.2982 317.564 55.193 320.343 59.0526C323.122 62.8351 324.704 67.5825 325.09 73.2947C325.245 74.993 325.322 76.807 325.322 78.7368C325.322 80.5895 325.245 82.4035 325.09 84.1789C324.704 89.814 323.199 94.5614 320.574 98.4211C318.027 102.281 314.322 105.175 309.459 107.105C304.596 109.035 298.613 110 291.511 110ZM291.511 91.4737C293.75 91.4737 295.139 90.8561 295.68 89.6211C296.22 88.3088 296.567 86.3018 296.722 83.6C296.799 82.4421 296.838 80.8211 296.838 78.7368C296.838 76.6526 296.799 75.0316 296.722 73.8737C296.567 71.3263 296.22 69.3965 295.68 68.0842C295.139 66.6947 293.75 66 291.511 66C289.35 66 287.96 66.6947 287.343 68.0842C286.803 69.3965 286.455 71.3263 286.301 73.8737C286.224 75.0316 286.185 76.6526 286.185 78.7368C286.185 80.8211 286.224 82.4421 286.301 83.6C286.455 86.3018 286.803 88.3088 287.343 89.6211C287.96 90.8561 289.35 91.4737 291.511 91.4737Z" fill="#058EA4"/>
<path d="M336.915 108.842C336.066 108.842 335.333 108.533 334.715 107.916C334.098 107.298 333.789 106.565 333.789 105.716V51.7579C333.789 50.9088 334.098 50.1754 334.715 49.5579C335.333 48.9404 336.066 48.6316 336.915 48.6316H357.179C358.028 48.6316 358.761 48.9404 359.379 49.5579C359.996 50.1754 360.305 50.9088 360.305 51.7579V55.8105C362.775 53.6491 365.515 51.9123 368.526 50.6C371.614 49.2877 374.894 48.6316 378.368 48.6316H383.926C384.775 48.6316 385.508 48.9404 386.126 49.5579C386.743 50.1754 387.052 50.9088 387.052 51.7579V69.8211C387.052 70.6702 386.743 71.4035 386.126 72.0211C385.508 72.6386 384.775 72.9474 383.926 72.9474H368.989C366.673 72.9474 364.936 73.5263 363.779 74.6842C362.621 75.8421 362.042 77.579 362.042 79.8947V105.716C362.042 106.565 361.733 107.298 361.115 107.916C360.498 108.533 359.765 108.842 358.915 108.842H336.915Z" fill="#058EA4"/>
<path d="M397.79 108.842C396.941 108.842 396.208 108.533 395.59 107.916C394.973 107.298 394.664 106.565 394.664 105.716V51.7579C394.664 50.9088 394.973 50.1754 395.59 49.5579C396.208 48.9404 396.941 48.6316 397.79 48.6316H418.517C419.366 48.6316 420.099 48.9404 420.717 49.5579C421.334 50.1754 421.643 50.9088 421.643 51.7579V105.716C421.643 106.565 421.334 107.298 420.717 107.916C420.099 108.533 419.366 108.842 418.517 108.842H397.79ZM398.369 42.2632C397.52 42.2632 396.787 41.9544 396.169 41.3368C395.552 40.7193 395.243 39.986 395.243 39.1368V25.1263C395.243 24.2772 395.552 23.5439 396.169 22.9263C396.787 22.3088 397.52 22 398.369 22H417.938C418.787 22 419.52 22.3088 420.138 22.9263C420.755 23.5439 421.064 24.2772 421.064 25.1263V39.1368C421.064 39.986 420.755 40.7193 420.138 41.3368C419.52 41.9544 418.787 42.2632 417.938 42.2632H398.369Z" fill="#058EA4"/>
</svg>
